<svg xmlns="http://www.w3.org/2000/svg" width="1600" height="920" viewBox="0 0 1600 920">
  <defs>
    <linearGradient id="top" x1="0" x2="1"><stop stop-color="#1557d6"/><stop offset="1" stop-color="#2f70f5"/></linearGradient>
    <linearGradient id="card" x1="0" x2="0" y1="0" y2="1"><stop stop-color="#fff"/><stop offset="1" stop-color="#f8fafc"/></linearGradient>
    <filter id="shadow"><feDropShadow dx="0" dy="10" stdDeviation="14" flood-color="#0f172a" flood-opacity=".13"/></filter>
  </defs>
  <rect width="1600" height="920" fill="#eef3f9"/>
  <rect x="28" y="22" width="1250" height="870" rx="24" fill="#fff" stroke="#cbd5e1" filter="url(#shadow)"/>
  <path d="M52 22h1202a24 24 0 0 1 24 24v76H28V46a24 24 0 0 1 24-24Z" fill="url(#top)"/>
  <text x="68" y="76" font-family="Segoe UI,Arial" font-size="29" font-weight="800" fill="#fff">▣ Pallet Insight</text>
  <text x="68" y="100" font-family="Segoe UI,Arial" font-size="12" fill="#dbeafe">Slimmer stapelen. Minder kosten.</text>
  <rect x="515" y="49" width="285" height="48" rx="13" fill="#fff" fill-opacity=".16" stroke="#fff" stroke-opacity=".3"/>
  <rect x="519" y="53" width="137" height="40" rx="10" fill="#fff"/>
  <text x="588" y="79" font-family="Segoe UI,Arial" font-size="14" font-weight="800" fill="#1d4ed8" text-anchor="middle">Basic</text>
  <text x="727" y="79" font-family="Segoe UI,Arial" font-size="14" font-weight="700" fill="#fff" text-anchor="middle">Advanced</text>
  <rect x="1108" y="52" width="126" height="38" rx="19" fill="#fff" fill-opacity=".15" stroke="#fff" stroke-opacity=".25"/>
  <circle cx="1129" cy="71" r="5" fill="#86efac"/><text x="1142" y="76" font-family="Segoe UI,Arial" font-size="12" font-weight="700" fill="#fff">Lokaal actief</text>

  <rect x="50" y="145" width="350" height="720" rx="18" fill="url(#card)" stroke="#dbe3ef"/>
  <rect x="72" y="169" width="48" height="23" rx="6" fill="#2563eb"/><text x="96" y="185" font-family="Segoe UI,Arial" font-size="10" font-weight="800" fill="#fff" text-anchor="middle">BASIC</text>
  <text x="130" y="185" font-family="Segoe UI,Arial" font-size="17" font-weight="800" fill="#0f172a">Snel berekenen</text>
  <text x="72" y="222" font-family="Segoe UI,Arial" font-size="12" font-weight="700" fill="#0f172a">Pallettype</text>
  <rect x="72" y="232" width="306" height="47" rx="10" fill="#fff" stroke="#cbd5e1"/><text x="88" y="261" font-family="Segoe UI,Arial" font-size="12" fill="#0f172a">Europallet 1200 × 800 × 144 mm</text>
  <g font-family="Segoe UI,Arial" font-size="11" fill="#0f172a">
    <text x="72" y="309" font-weight="700">Lengte</text><text x="176" y="309" font-weight="700">Breedte</text><text x="280" y="309" font-weight="700">Hoogte</text>
    <rect x="72" y="319" width="96" height="45" rx="9" fill="#fff" stroke="#cbd5e1"/><rect x="176" y="319" width="96" height="45" rx="9" fill="#fff" stroke="#cbd5e1"/><rect x="280" y="319" width="98" height="45" rx="9" fill="#fff" stroke="#cbd5e1"/>
    <text x="86" y="347">400 mm</text><text x="190" y="347">300 mm</text><text x="294" y="347">250 mm</text>
  </g>
  <text x="72" y="394" font-family="Segoe UI,Arial" font-size="11" font-weight="700" fill="#0f172a">Maximale pallethoogte</text>
  <rect x="72" y="404" width="306" height="45" rx="9" fill="#fff" stroke="#cbd5e1"/><text x="88" y="432" font-family="Segoe UI,Arial" font-size="12" fill="#0f172a">1800 mm</text>
  <text x="72" y="477" font-family="Segoe UI,Arial" font-size="11" font-weight="700" fill="#0f172a">Case quantity</text>
  <rect x="72" y="487" width="306" height="45" rx="9" fill="#fff" stroke="#cbd5e1"/><text x="88" y="515" font-family="Segoe UI,Arial" font-size="12" fill="#0f172a">12 stuks per doos</text>
  <text x="72" y="560" font-family="Segoe UI,Arial" font-size="11" font-weight="700" fill="#0f172a">Bedrijfsnaam op de dozen</text>
  <rect x="72" y="570" width="306" height="45" rx="9" fill="#fff" stroke="#2563eb"/><text x="88" y="598" font-family="Segoe UI,Arial" font-size="12" font-weight="700" fill="#0f172a">Design Group</text>
  <rect x="72" y="642" width="306" height="52" rx="11" fill="#2563eb"/><text x="225" y="674" font-family="Segoe UI,Arial" font-size="13" font-weight="800" fill="#fff" text-anchor="middle">BEREKEN PALLET</text>
  <rect x="72" y="720" width="306" height="105" rx="12" fill="#eff6ff" stroke="#bfdbfe"/>
  <text x="90" y="749" font-family="Segoe UI,Arial" font-size="13" font-weight="800" fill="#1d4ed8">Advanced voegt toe</text>
  <text x="90" y="776" font-family="Segoe UI,Arial" font-size="11" fill="#475569">Contractbesparing, volume, gewicht</text>
  <text x="90" y="798" font-family="Segoe UI,Arial" font-size="11" fill="#475569">en downloadbare PNG-datasheet.</text>

  <rect x="422" y="145" width="830" height="720" rx="18" fill="#fff" stroke="#dbe3ef"/>
  <text x="450" y="184" font-family="Segoe UI,Arial" font-size="23" font-weight="800" fill="#0f172a">Resultaat</text>
  <text x="450" y="207" font-family="Segoe UI,Arial" font-size="12" fill="#64748b">Europallet · optimale laagverdeling</text>
  <g font-family="Segoe UI,Arial" text-anchor="middle">
    <g><rect x="450" y="229" width="145" height="83" rx="11" fill="#fff" stroke="#dbe3ef"/><text x="522" y="253" font-size="11" fill="#64748b">Dozen per laag</text><text x="522" y="289" font-size="28" font-weight="800" fill="#0f172a">8</text></g>
    <g><rect x="605" y="229" width="145" height="83" rx="11" fill="#fff" stroke="#dbe3ef"/><text x="677" y="253" font-size="11" fill="#64748b">Aantal lagen</text><text x="677" y="289" font-size="28" font-weight="800" fill="#0f172a">6</text></g>
    <g><rect x="760" y="229" width="145" height="83" rx="11" fill="#fff" stroke="#dbe3ef"/><text x="832" y="253" font-size="11" fill="#64748b">Dozen per pallet</text><text x="832" y="289" font-size="28" font-weight="800" fill="#0f172a">48</text></g>
    <g><rect x="915" y="229" width="145" height="83" rx="11" fill="#fff" stroke="#dbe3ef"/><text x="987" y="253" font-size="11" fill="#64748b">Pallet quantity</text><text x="987" y="289" font-size="28" font-weight="800" fill="#0f172a">576</text></g>
    <g><rect x="1070" y="229" width="154" height="83" rx="11" fill="#fff" stroke="#dbe3ef"/><text x="1147" y="253" font-size="11" fill="#64748b">Pallethoogte</text><text x="1147" y="287" font-size="23" font-weight="800" fill="#0f172a">1.644 mm</text></g>
  </g>
  <rect x="450" y="330" width="774" height="500" rx="15" fill="#f8fafc" stroke="#dbe3ef"/>
  <text x="470" y="362" font-family="Segoe UI,Arial" font-size="15" font-weight="800" fill="#0f172a">Volledige palletweergave</text>
  <rect x="1115" y="345" width="88" height="28" rx="14" fill="#f0fdf4"/><text x="1159" y="363" font-family="Segoe UI,Arial" font-size="11" font-weight="800" fill="#15803d" text-anchor="middle">6 lagen</text>
  <polygon points="618,745 830,659 1043,745 830,817" fill="#d6a46a" stroke="#8b5e34"/>
  <g stroke="#87532b">
    <g fill="#b9793b"><polygon points="640,710 711,682 711,733 640,761"/><polygon points="711,682 782,710 782,761 711,733"/><polygon points="640,710 711,682 782,710 711,738"/></g>
    <g fill="#c88748"><polygon points="786,710 857,682 857,733 786,761"/><polygon points="857,682 928,710 928,761 857,733"/><polygon points="786,710 857,682 928,710 857,738"/></g>
    <g fill="#b9793b"><polygon points="713,647 784,619 784,670 713,698"/><polygon points="784,619 855,647 855,698 784,670"/><polygon points="713,647 784,619 855,647 784,675"/></g>
    <g fill="#c88748"><polygon points="859,647 930,619 930,670 859,698"/><polygon points="930,619 1001,647 1001,698 930,670"/><polygon points="859,647 930,619 1001,647 930,675"/></g>
    <g fill="#b9793b"><polygon points="713,584 784,556 784,607 713,635"/><polygon points="784,556 855,584 855,635 784,607"/><polygon points="713,584 784,556 855,584 784,612"/></g>
    <g fill="#c88748"><polygon points="859,584 930,556 930,607 859,635"/><polygon points="930,556 1001,584 1001,635 930,607"/><polygon points="859,584 930,556 1001,584 930,612"/></g>
    <g fill="#b9793b"><polygon points="713,521 784,493 784,544 713,572"/><polygon points="784,493 855,521 855,572 784,544"/><polygon points="713,521 784,493 855,521 784,549"/></g>
    <g fill="#c88748"><polygon points="859,521 930,493 930,544 859,572"/><polygon points="930,493 1001,521 1001,572 930,544"/><polygon points="859,521 930,493 1001,521 930,549"/></g>
  </g>
  <g font-family="Segoe UI,Arial" font-size="9" font-weight="800" fill="#4b2d14" text-anchor="middle">
    <text x="711" y="725">Design Group</text><text x="857" y="725">Design Group</text><text x="784" y="662">Design Group</text><text x="930" y="662">Design Group</text><text x="784" y="599">Design Group</text><text x="930" y="599">Design Group</text><text x="784" y="536">Design Group</text><text x="930" y="536">Design Group</text>
  </g>
  <rect x="468" y="786" width="250" height="28" rx="14" fill="#eff6ff"/><text x="593" y="804" font-family="Segoe UI,Arial" font-size="11" font-weight="800" fill="#1d4ed8" text-anchor="middle">Bedrukking: Design Group</text>

  <rect x="1310" y="95" width="258" height="760" rx="38" fill="#111827" filter="url(#shadow)"/>
  <rect x="1320" y="105" width="238" height="740" rx="31" fill="#fff"/>
  <rect x="1390" y="114" width="98" height="17" rx="9" fill="#111827"/>
  <rect x="1320" y="143" width="238" height="61" fill="#2563eb"/>
  <text x="1341" y="180" font-family="Segoe UI,Arial" font-size="15" font-weight="800" fill="#fff">▣ Pallet Insight</text>
  <rect x="1335" y="220" width="208" height="39" rx="10" fill="#eff6ff" stroke="#bfdbfe"/><text x="1387" y="245" font-family="Segoe UI,Arial" font-size="12" font-weight="800" fill="#1d4ed8" text-anchor="middle">Basic</text><text x="1490" y="245" font-family="Segoe UI,Arial" font-size="12" fill="#64748b" text-anchor="middle">Advanced</text>
  <rect x="1335" y="276" width="208" height="220" rx="13" fill="#fff" stroke="#dbe3ef"/>
  <text x="1350" y="303" font-family="Segoe UI,Arial" font-size="12" font-weight="800" fill="#0f172a">Invoer</text>
  <rect x="1350" y="318" width="178" height="36" rx="8" fill="#fff" stroke="#cbd5e1"/><text x="1360" y="341" font-family="Segoe UI,Arial" font-size="9" fill="#0f172a">Europallet 1200 × 800</text>
  <rect x="1350" y="366" width="54" height="34" rx="7" fill="#fff" stroke="#cbd5e1"/><rect x="1412" y="366" width="54" height="34" rx="7" fill="#fff" stroke="#cbd5e1"/><rect x="1474" y="366" width="54" height="34" rx="7" fill="#fff" stroke="#cbd5e1"/>
  <text x="1377" y="387" font-family="Segoe UI,Arial" font-size="9" fill="#0f172a" text-anchor="middle">400</text><text x="1439" y="387" font-family="Segoe UI,Arial" font-size="9" fill="#0f172a" text-anchor="middle">300</text><text x="1501" y="387" font-family="Segoe UI,Arial" font-size="9" fill="#0f172a" text-anchor="middle">250</text>
  <rect x="1350" y="412" width="178" height="34" rx="7" fill="#fff" stroke="#2563eb"/><text x="1360" y="434" font-family="Segoe UI,Arial" font-size="9" font-weight="700" fill="#0f172a">Design Group</text>
  <rect x="1350" y="457" width="178" height="30" rx="8" fill="#2563eb"/><text x="1439" y="477" font-family="Segoe UI,Arial" font-size="9" font-weight="800" fill="#fff" text-anchor="middle">BEREKEN PALLET</text>
  <rect x="1335" y="510" width="208" height="304" rx="13" fill="#fff" stroke="#dbe3ef"/>
  <text x="1350" y="536" font-family="Segoe UI,Arial" font-size="12" font-weight="800" fill="#0f172a">Resultaat</text>
  <g font-family="Segoe UI,Arial" font-size="8" text-anchor="middle"><text x="1372" y="563" fill="#64748b">Laag</text><text x="1439" y="563" fill="#64748b">Lagen</text><text x="1506" y="563" fill="#64748b">Pallet</text><text x="1372" y="583" font-size="16" font-weight="800" fill="#0f172a">8</text><text x="1439" y="583" font-size="16" font-weight="800" fill="#0f172a">6</text><text x="1506" y="583" font-size="16" font-weight="800" fill="#0f172a">576</text></g>
  <polygon points="1372,750 1439,722 1506,750 1439,773" fill="#d6a46a" stroke="#8b5e34"/>
  <g fill="#c88748" stroke="#87532b"><rect x="1392" y="671" width="42" height="30"/><rect x="1438" y="671" width="42" height="30"/><rect x="1400" y="637" width="42" height="30"/><rect x="1446" y="637" width="42" height="30"/><rect x="1408" y="603" width="42" height="30"/><rect x="1454" y="603" width="42" height="30"/></g>
  <g font-family="Segoe UI,Arial" font-size="5" font-weight="800" fill="#4b2d14"><text x="1395" y="689">Design Group</text><text x="1441" y="689">Design Group</text><text x="1403" y="655">Design Group</text><text x="1449" y="655">Design Group</text></g>
  <text x="1439" y="797" font-family="Segoe UI,Arial" font-size="9" font-weight="700" fill="#1d4ed8" text-anchor="middle">Volledige pallet zichtbaar</text>
</svg>
