<svg xmlns="http://www.w3.org/2000/svg" width="1200" height="760" viewBox="0 0 1200 760">
  <rect width="1200" height="760" fill="#f6f8fc"/>
  <rect width="1200" height="76" fill="#2563eb"/>
  <text x="48" y="49" font-family="Segoe UI,Arial" font-size="28" font-weight="700" fill="white">▣ Pallet Insight</text>
  <rect x="42" y="110" width="1116" height="205" rx="18" fill="white" stroke="#dbe3ef"/>
  <circle cx="78" cy="148" r="17" fill="#2563eb"/><text x="73" y="155" font-family="Arial" font-size="17" font-weight="700" fill="white">1</text>
  <text x="110" y="150" font-family="Segoe UI,Arial" font-size="24" font-weight="700" fill="#0f172a">Bereken optimale opstelling</text>
  <text x="110" y="174" font-family="Segoe UI,Arial" font-size="14" fill="#64748b">Pallettype, doosmaten en maximale hoogte</text>
  <rect x="72" y="205" width="282" height="54" rx="10" fill="#fff" stroke="#cbd5e1"/><text x="90" y="238" font-family="Segoe UI,Arial" font-size="15" fill="#0f172a">Europallet 1200 × 800 × 144</text>
  <rect x="378" y="205" width="150" height="54" rx="10" fill="#fff" stroke="#cbd5e1"/><text x="396" y="238" font-family="Segoe UI,Arial" font-size="15" fill="#0f172a">L 400 mm</text>
  <rect x="546" y="205" width="150" height="54" rx="10" fill="#fff" stroke="#cbd5e1"/><text x="564" y="238" font-family="Segoe UI,Arial" font-size="15" fill="#0f172a">B 300 mm</text>
  <rect x="714" y="205" width="150" height="54" rx="10" fill="#fff" stroke="#cbd5e1"/><text x="732" y="238" font-family="Segoe UI,Arial" font-size="15" fill="#0f172a">H 250 mm</text>
  <rect x="882" y="205" width="236" height="54" rx="10" fill="#fff" stroke="#cbd5e1"/><text x="900" y="238" font-family="Segoe UI,Arial" font-size="15" fill="#0f172a">Max hoogte 1800 mm</text>
  <rect x="72" y="272" width="1046" height="28" rx="8" fill="#2563eb"/><text x="514" y="292" font-family="Segoe UI,Arial" font-size="13" font-weight="700" fill="white">BEREKEN OPTIMALE LAYOUT</text>
  <rect x="42" y="340" width="1116" height="380" rx="18" fill="white" stroke="#dbe3ef"/>
  <circle cx="78" cy="378" r="17" fill="#2563eb"/><text x="73" y="385" font-family="Arial" font-size="17" font-weight="700" fill="white">2</text>
  <text x="110" y="382" font-family="Segoe UI,Arial" font-size="24" font-weight="700" fill="#0f172a">Resultaat</text>
  <g font-family="Segoe UI,Arial" text-anchor="middle">
    <rect x="72" y="414" width="210" height="78" rx="12" fill="#fff" stroke="#dbe3ef"/><text x="177" y="440" font-size="13" fill="#64748b">Dozen per laag</text><text x="177" y="475" font-size="30" font-weight="700" fill="#0f172a">8</text>
    <rect x="294" y="414" width="210" height="78" rx="12" fill="#fff" stroke="#dbe3ef"/><text x="399" y="440" font-size="13" fill="#64748b">Aantal lagen</text><text x="399" y="475" font-size="30" font-weight="700" fill="#0f172a">6</text>
    <rect x="516" y="414" width="210" height="78" rx="12" fill="#fff" stroke="#dbe3ef"/><text x="621" y="440" font-size="13" fill="#64748b">Totaal dozen</text><text x="621" y="475" font-size="30" font-weight="700" fill="#0f172a">48</text>
    <rect x="738" y="414" width="210" height="78" rx="12" fill="#fff" stroke="#dbe3ef"/><text x="843" y="440" font-size="13" fill="#64748b">Pallethoogte</text><text x="843" y="475" font-size="27" font-weight="700" fill="#0f172a">1644 mm</text>
  </g>
  <rect x="72" y="516" width="684" height="175" rx="14" fill="#f8fafc" stroke="#dbe3ef"/>
  <polygon points="248,642 435,570 620,642 435,704" fill="#d6a46a" stroke="#8b5e34"/>
  <g fill="#dca763" stroke="#8b5e34">
    <rect x="310" y="555" width="72" height="42"/><rect x="386" y="555" width="72" height="42"/><rect x="462" y="555" width="72" height="42"/>
    <rect x="330" y="510" width="72" height="42"/><rect x="406" y="510" width="72" height="42"/><rect x="482" y="510" width="72" height="42"/>
  </g>
  <rect x="778" y="516" width="340" height="175" rx="14" fill="#f0fdf4" stroke="#bbf7d0"/>
  <text x="802" y="551" font-family="Segoe UI,Arial" font-size="17" font-weight="700" fill="#14532d">Optimalisatieadvies</text>
  <text x="802" y="582" font-family="Segoe UI,Arial" font-size="14" fill="#3f6212">14 mm lager geeft één extra laag.</text>
  <text x="802" y="610" font-family="Segoe UI,Arial" font-size="14" fill="#3f6212">48 → 56 dozen per pallet</text>
  <text x="802" y="657" font-family="Segoe UI,Arial" font-size="26" font-weight="700" fill="#15803d">+8 dozen</text>
</svg>
