<svg xmlns="http://www.w3.org/2000/svg" width="430" height="900" viewBox="0 0 430 900">
  <rect width="430" height="900" fill="#f6f8fc"/>
  <rect width="430" height="66" fill="#2563eb"/>
  <text x="22" y="42" font-family="Segoe UI,Arial" font-size="22" font-weight="700" fill="white">▣ Pallet Insight</text>
  <rect x="12" y="82" width="406" height="254" rx="16" fill="white" stroke="#dbe3ef"/>
  <circle cx="37" cy="111" r="15" fill="#2563eb"/><text x="33" y="117" font-family="Arial" font-size="15" font-weight="700" fill="white">1</text>
  <text x="62" y="114" font-family="Segoe UI,Arial" font-size="18" font-weight="700" fill="#0f172a">Optimale opstelling</text>
  <rect x="24" y="142" width="382" height="47" rx="9" fill="#fff" stroke="#cbd5e1"/><text x="39" y="171" font-family="Segoe UI,Arial" font-size="13" fill="#0f172a">Europallet 1200 × 800 × 144 mm</text>
  <rect x="24" y="202" width="119" height="47" rx="9" fill="#fff" stroke="#cbd5e1"/><text x="36" y="231" font-family="Segoe UI,Arial" font-size="13" fill="#0f172a">L 400 mm</text>
  <rect x="155" y="202" width="119" height="47" rx="9" fill="#fff" stroke="#cbd5e1"/><text x="167" y="231" font-family="Segoe UI,Arial" font-size="13" fill="#0f172a">B 300 mm</text>
  <rect x="286" y="202" width="120" height="47" rx="9" fill="#fff" stroke="#cbd5e1"/><text x="298" y="231" font-family="Segoe UI,Arial" font-size="13" fill="#0f172a">H 250 mm</text>
  <rect x="24" y="262" width="382" height="47" rx="9" fill="#fff" stroke="#cbd5e1"/><text x="39" y="291" font-family="Segoe UI,Arial" font-size="13" fill="#0f172a">Maximale pallethoogte 1800 mm</text>
  <rect x="24" y="316" width="382" height="11" rx="5" fill="#2563eb"/>
  <rect x="12" y="350" width="406" height="526" rx="16" fill="white" stroke="#dbe3ef"/>
  <circle cx="37" cy="379" r="15" fill="#2563eb"/><text x="33" y="385" font-family="Arial" font-size="15" font-weight="700" fill="white">2</text>
  <text x="62" y="382" font-family="Segoe UI,Arial" font-size="18" font-weight="700" fill="#0f172a">Resultaat</text>
  <g font-family="Segoe UI,Arial" text-anchor="middle">
    <rect x="24" y="407" width="183" height="70" rx="10" fill="#fff" stroke="#dbe3ef"/><text x="115" y="430" font-size="11" fill="#64748b">Dozen per laag</text><text x="115" y="462" font-size="26" font-weight="700" fill="#0f172a">8</text>
    <rect x="219" y="407" width="187" height="70" rx="10" fill="#fff" stroke="#dbe3ef"/><text x="312" y="430" font-size="11" fill="#64748b">Aantal lagen</text><text x="312" y="462" font-size="26" font-weight="700" fill="#0f172a">6</text>
    <rect x="24" y="489" width="183" height="70" rx="10" fill="#fff" stroke="#dbe3ef"/><text x="115" y="512" font-size="11" fill="#64748b">Totaal dozen</text><text x="115" y="544" font-size="26" font-weight="700" fill="#0f172a">48</text>
    <rect x="219" y="489" width="187" height="70" rx="10" fill="#fff" stroke="#dbe3ef"/><text x="312" y="512" font-size="11" fill="#64748b">Pallethoogte</text><text x="312" y="543" font-size="22" font-weight="700" fill="#0f172a">1644 mm</text>
  </g>
  <rect x="24" y="575" width="382" height="190" rx="12" fill="#f8fafc" stroke="#dbe3ef"/>
  <polygon points="89,711 215,658 342,711 215,755" fill="#d6a46a" stroke="#8b5e34"/>
  <g fill="#dca763" stroke="#8b5e34">
    <rect x="140" y="627" width="54" height="35"/><rect x="198" y="627" width="54" height="35"/><rect x="256" y="627" width="54" height="35"/>
    <rect x="156" y="590" width="54" height="35"/><rect x="214" y="590" width="54" height="35"/><rect x="272" y="590" width="54" height="35"/>
  </g>
  <rect x="24" y="780" width="382" height="76" rx="12" fill="#f0fdf4" stroke="#bbf7d0"/>
  <text x="42" y="807" font-family="Segoe UI,Arial" font-size="14" font-weight="700" fill="#14532d">14 mm lager geeft één extra laag</text>
  <text x="42" y="834" font-family="Segoe UI,Arial" font-size="13" fill="#3f6212">48 → 56 dozen per pallet · +8 dozen</text>
</svg>
